<svg width="20" height="20" viewBox="0 0 20 20" fill="none" xmlns="http://www.w3.org/2000/svg">
<path d="M0.750235 0.749991L2.83021 1.10999L3.7932 12.5828C3.8702 13.5198 4.65319 14.2388 5.59318 14.2358H16.502C17.399 14.2378 18.16 13.5778 18.287 12.6898L19.236 6.13193C19.342 5.39893 18.833 4.71894 18.101 4.61294C18.037 4.60394 3.16421 4.59894 3.16421 4.59894" stroke="#AAACAE" stroke-width="1.5" stroke-linecap="round" stroke-linejoin="round"/>
<path d="M12.1251 8.29482H14.8981" stroke="#130F26" stroke-opacity="0.4" stroke-width="1.5" stroke-linecap="round" stroke-linejoin="round"/>
<path fill-rule="evenodd" clip-rule="evenodd" d="M5.15453 17.7024C5.45553 17.7024 5.69853 17.9464 5.69853 18.2464C5.69853 18.5474 5.45553 18.7914 5.15453 18.7914C4.85354 18.7914 4.61054 18.5474 4.61054 18.2464C4.61054 17.9464 4.85354 17.7024 5.15453 17.7024Z" fill="#AAACAE" stroke="#AAACAE" stroke-width="1.5" stroke-linecap="round" stroke-linejoin="round"/>
<path fill-rule="evenodd" clip-rule="evenodd" d="M16.4347 17.7024C16.7357 17.7024 16.9797 17.9464 16.9797 18.2464C16.9797 18.5474 16.7357 18.7914 16.4347 18.7914C16.1337 18.7914 15.8907 18.5474 15.8907 18.2464C15.8907 17.9464 16.1337 17.7024 16.4347 17.7024Z" fill="#130F26" fill-opacity="0.4" stroke="#130F26" stroke-opacity="0.4" stroke-width="1.5" stroke-linecap="round" stroke-linejoin="round"/>
</svg>
