<svg width="33" height="31" viewBox="0 0 33 31" fill="none" xmlns="http://www.w3.org/2000/svg">
<rect width="33" height="31" rx="15" fill="#FBE7E7"/>
<path d="M22.543 13.5381C22.543 13.5381 22.095 18.7577 21.8352 20.9564C21.7114 22.0065 21.0209 22.6219 19.8898 22.6412C17.7374 22.6777 15.5825 22.68 13.4309 22.6374C12.3427 22.6164 11.6637 21.9933 11.5425 20.9618C11.2809 18.7438 10.8354 13.5381 10.8354 13.5381" stroke="#FE554A" stroke-width="1.5" stroke-linecap="round" stroke-linejoin="round"/>
<path d="M23.6842 11.0359H9.69385" stroke="#FE554A" stroke-width="1.5" stroke-linecap="round" stroke-linejoin="round"/>
<path d="M20.9886 11.036C20.341 11.036 19.7833 10.6059 19.6562 10.0099L19.4558 9.06751C19.332 8.63273 18.9129 8.33203 18.4352 8.33203H14.943C14.4653 8.33203 14.0462 8.63273 13.9225 9.06751L13.722 10.0099C13.595 10.6059 13.0373 11.036 12.3896 11.036" stroke="#FE554A" stroke-width="1.5" stroke-linecap="round" stroke-linejoin="round"/>
</svg>
